<svg xmlns="http://www.w3.org/2000/svg" version="1.1" xmlns:xlink="http://www.w3.org/1999/xlink" xmlns:svgjs="http://svgjs.com/svgjs" viewBox="0 0 20 20" height="20" width="20">
    <title>Info</title>
    <g transform="translate(50 50) scale(0.69 0.69) rotate(0) translate(-50 -50)">
        <g>
            <path
                d="M-7.3-15.9c0.2,0.2,0.3,0.4,0.3,0.7c0,0.1,0,0.3-0.1,0.4c-0.1,0.1-0.1,0.2-0.2,0.3c-0.1,0.1-0.2,0.2-0.3,0.2
			c-0.1,0-0.3,0.1-0.4,0.1c-0.3,0-0.5-0.1-0.7-0.3c-0.1-0.1-0.2-0.2-0.2-0.3c0-0.1-0.1-0.3-0.1-0.4c0-0.1,0-0.1,0-0.2
			c0-0.1,0-0.1,0.1-0.2c0-0.1,0.1-0.1,0.1-0.2c0-0.1,0.1-0.1,0.1-0.2c0,0,0.1-0.1,0.2-0.1c0.1,0,0.1-0.1,0.2-0.1
			c0.1,0,0.1,0,0.2-0.1c0.1,0,0.3,0,0.4,0c0.1,0,0.1,0,0.2,0.1c0.1,0,0.1,0.1,0.2,0.1C-7.4-16-7.3-16-7.3-15.9z M-8-11.5
			c-0.4,0-0.7,0.3-0.7,0.7v10.1c0,0.4,0.3,0.7,0.7,0.7s0.7-0.3,0.7-0.7v-10.1C-7.3-11.2-7.6-11.5-8-11.5z M6.5-8C6.5,0,0,6.5-8,6.5
			S-22.5,0-22.5-8S-16-22.5-8-22.5C0-22.5,6.5-16,6.5-8z M5.2-8c0-7.3-5.9-13.1-13.1-13.1c-7.3,0-13.1,5.9-13.1,13.1
			c0,7.3,5.9,13.1,13.1,13.1C-0.7,5.2,5.2-0.7,5.2-8z"
            />
        </g>
    </g>
</svg>
