<svg width="181px" height="98px" viewBox="0 20 181 98" version="1.1" xmlns="http://www.w3.org/2000/svg" xmlns:xlink="http://www.w3.org/1999/xlink">
<!--  <g transform="translate(2.000000, 24.000000)" fill="#EFFBFF">
   <path class="a" d="M126,6.8C136.8,12,143.4,26,146.4,40.9s2.2,30.7-5.2,42-21.4,18-32.4,13.8S89.5,77.4,79.4,71.8,57,70.6,40.1,65.6,1.7,46.8.1,33,16.8,5.5,34.4,1.4s34.2,1.7,50,2.7S115.2,1.6,126,6.8Z"/>
 </g> -->
  <g transform="translate(2.000000, -20.000000)" fill="currentColor">
		<path d="M36.1,86v8.6c0,0.3-0.3,0.6-0.6,0.6h-1.8c-0.3,0-0.6-0.3-0.6-0.6v-3.7c0-0.3-0.1-0.4-0.3-0.1l-1.7,2.7
			c-0.2,0.3-0.4,0.3-0.6,0l-1.6-2.7c-0.2-0.3-0.3-0.2-0.3,0.1v3.6c0,0.3-0.3,0.6-0.6,0.6h-1c-0.3,0-0.6-0.3-0.6-0.6V86
			c0-0.3,0.3-0.6,0.6-0.6h1.5c0.3,0,0.8,0.2,0.9,0.5l1.6,2.5c0.2,0.3,0.5,0.3,0.6,0l1.5-2.5c0.2-0.3,0.6-0.5,0.9-0.5h1.3
			C35.8,85.4,36.1,85.7,36.1,86z"/>
		<path d="M47.1,95.2h-2c-0.3,0-0.7-0.2-0.9-0.5l-0.3-0.7c-0.1-0.3-0.5-0.5-0.9-0.5h-2.9c-0.3,0-0.7,0.2-0.9,0.5L39,94.7
			c-0.1,0.3-0.5,0.5-0.9,0.5h-1.2c-0.3,0-0.5-0.2-0.3-0.5l4.1-8.7c0.1-0.3,0.5-0.5,0.9-0.5h1.1c0.3,0,0.7,0.2,0.9,0.5l4,8.7
			C47.6,95,47.5,95.2,47.1,95.2z M42.4,90.7l-0.5-1.1c-0.1-0.3-0.4-0.3-0.5,0l-0.5,1.1c-0.1,0.3,0,0.5,0.4,0.5H42
			C42.4,91.2,42.5,91,42.4,90.7z"/>
		<path d="M56,95.2h-2.1c-0.3,0-0.7-0.2-0.9-0.5l-1-2c-0.2-0.3-0.4-0.5-0.6-0.5S51,92.4,51,92.8v1.8c0,0.3-0.3,0.6-0.6,0.6h-1.8
			c-0.3,0-0.6-0.3-0.6-0.6V86c0-0.3,0.2-0.6,0.4-0.6h3.8c1.5,0,2.4,0.6,2.9,1c0.7,0.6,1.1,1.5,1.1,2.4c0,0.9-0.4,1.7-1,2.3l-0.2,0.2
			c-0.1,0.1-0.1,0.4,0,0.7l1.3,2.6C56.5,95,56.3,95.2,56,95.2z M53.4,88.9c0-1.1-0.8-1.4-1.2-1.4h-0.6c-0.3,0-0.6,0.3-0.6,0.6v1.2
			c0,0.3,0.3,0.6,0.6,0.6h0.8c0.4,0,0.6-0.1,0.8-0.3C53.3,89.5,53.4,89.2,53.4,88.9z"/>
		<path d="M66.1,95.2h-2.3c-0.3,0-0.8-0.2-0.9-0.5l-1.7-2.6c-0.2-0.3-0.5-0.3-0.6-0.1c-0.2,0.2-0.3,0.7-0.3,1v1.6
			c0,0.3-0.3,0.6-0.6,0.6h-1.8c-0.3,0-0.6-0.3-0.6-0.6V86c0-0.3,0.3-0.6,0.6-0.6h1.8c0.3,0,0.6,0.3,0.6,0.6v2.3c0,0.3,0.2,0.4,0.4,0.1
			l2-2.6c0.2-0.3,0.7-0.5,1-0.5h1.6c0.3,0,0.4,0.2,0.2,0.5l-2.3,2.9c-0.2,0.3-0.2,0.7,0,1l3.3,5C66.6,95,66.4,95.2,66.1,95.2z"/>
		<path d="M73.9,93.6l-0.4,1.1c-0.1,0.3-0.5,0.6-0.8,0.6h-5.2c-0.2,0-0.4-0.3-0.4-0.6V86c0-0.3,0.2-0.6,0.4-0.6h6.1
			c0.3,0,0.5,0.3,0.4,0.6L73.5,87c-0.1,0.3-0.5,0.5-0.8,0.5h-2c-0.3,0-0.6,0.3-0.6,0.6v0.6c0,0.3,0.3,0.6,0.6,0.6h1.5
			c0.3,0,0.5,0.3,0.4,0.6L72.1,91c-0.1,0.3-0.5,0.5-0.8,0.5h-0.6c-0.3,0-0.6,0.3-0.6,0.6v0.3c0,0.3,0.3,0.6,0.6,0.6h2.9
			C73.9,93,74,93.3,73.9,93.6z"/>
		<path d="M82.8,86v1c0,0.3-0.3,0.6-0.6,0.6h-1.3c-0.3,0-0.6,0.3-0.6,0.6v6.4c0,0.3-0.2,0.6-0.4,0.6h-2.2c-0.2,0-0.4-0.3-0.4-0.6v-6.4
			c0-0.3-0.3-0.6-0.6-0.6h-1.3c-0.3,0-0.6-0.3-0.6-0.6v-1c0-0.3,0.3-0.6,0.6-0.6h6.8C82.5,85.4,82.8,85.7,82.8,86z"/>
		<path d="M86.8,86v8.6c0,0.3-0.2,0.6-0.4,0.6h-2.2c-0.2,0-0.4-0.3-0.4-0.6V86c0-0.3,0.2-0.6,0.4-0.6h2.2C86.6,85.4,86.8,85.7,86.8,86
			z"/>
		<path d="M96.2,86v8.6c0,0.3-0.3,0.5-0.6,0.5h-0.4c-0.3,0-0.8-0.2-1-0.5L90.6,90c-0.2-0.3-0.4-0.2-0.4,0.1v4.5c0,0.3-0.3,0.6-0.6,0.6
			h-1c-0.3,0-0.6-0.3-0.6-0.6V86c0-0.3,0.3-0.6,0.6-0.6H90c0.3,0,0.8,0.2,1,0.5l2.7,3.4c0.2,0.3,0.4,0.2,0.4-0.1V86
			c0-0.3,0.3-0.6,0.6-0.6h1C95.9,85.4,96.2,85.7,96.2,86z"/>
		<path d="M105.9,94.3c-0.9,0.6-1.9,1-3,1h-0.2c-1.6,0-2.9-0.4-3.9-1.2c-1.2-0.9-1.8-2.2-1.8-3.8c0-3.1,2.2-5,5.8-5
			c0.9,0,1.8,0.2,2.6,0.7c0.3,0.2,0.4,0.5,0.2,0.8l-0.6,0.8c-0.2,0.3-0.6,0.3-0.9,0.2c-0.4-0.2-0.9-0.3-1.4-0.3
			c-2.2,0-2.7,1.8-2.7,2.9c0,1.6,1.2,2.9,2.7,2.9c0.3,0,0.6-0.1,0.6-0.7v-0.4c0-0.3-0.3-0.6-0.6-0.6h-0.3c-0.3,0-0.6-0.3-0.6-0.6v-1
			c0-0.3,0.3-0.6,0.6-0.6h3.3c0.3,0,0.6,0.2,0.6,0.6v3.4C106.4,93.8,106.3,94,105.9,94.3z"/>
		<path d="M120.5,96.1l-0.2-0.5c-0.1-0.3-0.5-0.4-0.8-0.3c0,0,0,0,0,0c1.4-0.4,0.7,0.4-1.9,0.2c-3.4,0-5.2-2.1-5.2-4.2
			c0-1.2,0.5-2.3,1.4-3.1l0.9-0.6c0.3-0.2,0.5-0.5,0.3-0.8l-1.2-1.6c-0.2-0.3-0.1-0.6,0.3-0.6h4.8c0.4,0,0.7,0.2,0.9,0.6l0.5,1.2
			c0.1,0.2,0,0.4-0.1,0.5c-0.1,0-0.2,0.1-0.3,0.1h-1.4c-0.3,0-0.5,0.2-0.3,0.5c0.5,0.7,1,1.4,1.4,2.2c0.2,0.2,0.3,0.4,0.4,0.6
			c0.2,0.3,0.4,0.3,0.4,0.1s0.3-0.4,0.6-0.4h1.1c0.3,0.1,0.6,0.3,0.6,0.7c0,0.8-0.2,1.6-0.5,2.3c-0.2,0.4-0.2,0.7,0,1.1
			c0.2,0.4,0.4,0.9,0.5,1.4c0.1,0.3-0.1,0.5-0.4,0.6c0,0-0.1,0-0.1,0H120.5L120.5,96.1z M117.6,93.2h0.7c0.3,0,0.5-0.3,0.4-0.6
			c0-0.1,0-0.1,0-0.1l-1.6-2.5c-0.2-0.3-0.6-0.5-0.8-0.4l-0.4,0.3c-0.3,0.4-0.5,0.9-0.5,1.4c0,1,0.8,1.9,1.9,1.9
			C117.4,93.2,117.5,93.2,117.6,93.2z"/>
		<path d="M41.8,109.6h-2c-0.3,0-0.7-0.2-0.9-0.5l-0.3-0.7c-0.1-0.3-0.5-0.5-0.9-0.5h-2.9c-0.3,0-0.7,0.2-0.9,0.5l-0.3,0.7
			c-0.1,0.3-0.5,0.5-0.9,0.5h-1.2c-0.3,0-0.5-0.2-0.3-0.5l4.1-8.7c0.1-0.3,0.5-0.5,0.9-0.5h1.1c0.3,0,0.7,0.2,0.9,0.5l4,8.7
			C42.3,109.4,42.1,109.6,41.8,109.6z M37.1,105.1l-0.5-1.1c-0.1-0.3-0.4-0.3-0.5,0l-0.5,1.1c-0.1,0.3,0,0.5,0.4,0.5h0.8
			C37,105.6,37.2,105.4,37.1,105.1z"/>
		<path d="M50.8,100.4v8.6c0,0.3-0.3,0.5-0.6,0.5h-0.4c-0.3,0-0.8-0.2-1-0.5l-3.6-4.7c-0.2-0.3-0.4-0.2-0.4,0.1v4.5
			c0,0.3-0.3,0.6-0.6,0.6h-1c-0.3,0-0.6-0.3-0.6-0.6v-8.6c0-0.3,0.3-0.6,0.6-0.6h1.4c0.3,0,0.8,0.2,1,0.5l2.7,3.4
			c0.2,0.3,0.4,0.2,0.4-0.1v-3.2c0-0.3,0.3-0.6,0.6-0.6h1C50.5,99.8,50.8,100.1,50.8,100.4z"/>
		<path d="M61.8,109.6h-2c-0.3,0-0.7-0.2-0.9-0.5l-0.3-0.7c-0.1-0.3-0.5-0.5-0.9-0.5h-2.9c-0.3,0-0.7,0.2-0.9,0.5l-0.3,0.7
			c-0.1,0.3-0.5,0.5-0.9,0.5h-1.2c-0.3,0-0.5-0.2-0.3-0.5l4.1-8.7c0.1-0.3,0.5-0.5,0.9-0.5h1c0.3,0,0.7,0.2,0.9,0.5l4,8.7
			C62.3,109.4,62.1,109.6,61.8,109.6z M57.1,105.1l-0.5-1.1c-0.1-0.3-0.4-0.3-0.5,0l-0.5,1.1c-0.1,0.3,0,0.5,0.3,0.5h0.8
			C57,105.6,57.2,105.4,57.1,105.1z"/>
		<path d="M65.9,100.4v6.4c0,0.3,0.3,0.6,0.6,0.6h2.9c0.3,0,0.5,0.2,0.4,0.5l-0.4,1.1c-0.1,0.3-0.5,0.6-0.8,0.6h-5.1
			c-0.3,0-0.6-0.3-0.6-0.6v-8.6c0-0.3,0.2-0.6,0.4-0.6h2.2C65.7,99.8,65.9,100.1,65.9,100.4z"/>
		<path d="M76.8,100.3l-2.5,4.7c-0.2,0.3-0.3,0.8-0.3,1.1v2.9c0,0.3-0.3,0.6-0.6,0.6h-1.8c-0.3,0-0.6-0.3-0.6-0.6v-2.9
			c0-0.3-0.1-0.8-0.3-1.1l-2.7-4.7c-0.2-0.3,0-0.5,0.3-0.5h2.1c0.3,0,0.7,0.2,0.9,0.5l1.3,2.4c0.2,0.3,0.4,0.3,0.6,0l1.3-2.4
			c0.2-0.3,0.5-0.5,0.9-0.5h1.3C76.8,99.8,77,100.1,76.8,100.3z"/>
		<path d="M85.4,100.4v1c0,0.3-0.3,0.6-0.6,0.6h-1.3c-0.3,0-0.6,0.3-0.6,0.6v6.4c0,0.3-0.2,0.6-0.4,0.6h-2.2c-0.2,0-0.4-0.3-0.4-0.6
			v-6.4c0-0.3-0.3-0.6-0.6-0.6H78c-0.3,0-0.6-0.3-0.6-0.6v-1c0-0.3,0.3-0.6,0.6-0.6h6.8C85.1,99.8,85.4,100.1,85.4,100.4z"/>
		<path d="M89.4,100.4v8.6c0,0.3-0.2,0.6-0.4,0.6h-2.2c-0.2,0-0.4-0.3-0.4-0.6v-8.6c0-0.3,0.2-0.6,0.4-0.6H89
			C89.2,99.8,89.4,100.1,89.4,100.4z"/>
		<path d="M98.6,109c-0.8,0.5-1.7,0.7-2.6,0.7h-0.3c-1.9-0.1-3-0.9-3.7-1.5c-0.9-0.9-1.3-2.1-1.3-3.4c0-1.3,0.5-2.5,1.4-3.5
			c0.6-0.7,1.8-1.5,3.7-1.6H96c0.9,0,1.8,0.2,2.6,0.7c0.3,0.2,0.3,0.5,0.2,0.8l-0.6,0.8c-0.2,0.3-0.6,0.3-0.9,0.2
			c-0.4-0.2-0.9-0.3-1.4-0.3c-1.7,0-2.5,1.5-2.5,2.9c0,0.8,0.2,1.5,0.6,2c0.4,0.5,1.1,0.8,1.8,0.8c0.5,0,0.9-0.1,1.4-0.3
			c0.3-0.1,0.7-0.1,0.9,0.2l0.6,0.8C99,108.5,98.9,108.9,98.6,109z"/>
		<path d="M108.2,106.6c0,1.8-1.7,3.1-4.4,3.1c-1.7,0-3.1-0.7-3.8-1.1c-0.3-0.2-0.4-0.6-0.3-0.9l0.4-1.1c0.1-0.3,0.4-0.4,0.7-0.2
			c0.8,0.6,1.7,1.1,3.2,1.1c0.7,0,1.1-0.2,1.1-0.6c0-0.8-5-1.5-5-4.3c0-2.1,1.6-2.9,4.2-2.9c1.3,0,2.4,0.4,3.1,0.8
			c0.3,0.1,0.4,0.5,0.3,0.8l-0.4,0.9c-0.1,0.3-0.4,0.4-0.7,0.2c-0.4-0.3-1.2-0.6-2.4-0.6c-0.6,0-1,0.3-1,0.6
			C103.2,103.4,108.2,103.9,108.2,106.6z"/>
		<path d="M8.6,77.3c0.5,1.4,1.5,2.6,2.7,3.5c1.3,1.1,3.4,1.7,6.3,1.7s4-0.9,6.2-2.7c2.4-2.1,4.5-4.4,6.5-6.9
			c-1.7,1.3-3.6,2.3-5.5,3.2c-1.7,0.8-3.5,1.2-5.3,1.3c-1.2,0-2.4-0.3-3.5-0.7c-1.2-0.5-2.2-1.3-3-2.4c-0.8-1.4-1.2-3-1.1-4.6
			c0-2.8,1.2-5.7,3.7-8.7c2.5-3,5.6-5.6,9-7.5c3.6-2,6.7-3,9.4-3c2.7,0,5.8,1.5,5.8,4.6c-0.2,1.7-0.9,3.3-2,4.5
			c-1.3,1.8-3,3.3-4.9,4.4c-1.8,1.1-3.8,1.7-5.9,1.8c-0.6,0-1.3-0.1-1.9-0.3c-0.6-0.2-1.1-0.6-1.5-1.1l3.9-5.7
			c0.7,0.9,1.8,1.3,2.9,1.3c1.1,0,2.1-0.4,3-0.9c1-0.6,1.8-1.3,2.5-2.2c0.6-0.6,0.9-1.4,1-2.3c0-0.6-0.3-1.1-0.7-1.4
			c-0.5-0.3-1.1-0.5-1.7-0.5c-2.7,0.1-5.4,1-7.5,2.7c-2.4,1.7-4.5,3.8-6.1,6.3c-1.5,2.4-2.3,4.5-2.3,6.1c0,1.3,0.3,2.5,0.9,3.6
			c0.6,1.1,1.8,1.6,3.5,1.6c1.9,0.1,3.8-0.3,5.6-1.1c1.5-0.6,2.9-1.6,4-2.8c1-1.1,1.7-2.4,2.2-3.8h3.5c-0.4,0.5-0.7,1-1,1.6l-1,1.5
			c-2.4,3.8-4.6,7.1-6.8,10c-2.2,3-4.7,5.6-7.6,7.9c-2.5,2.1-5.7,3.3-9,3.4c-1.9,0-3.7-0.4-5.4-1.3c-1.6-0.9-3-2.1-4.1-3.5l4.8-7.7
			L8.6,77.3z"/>
		<path d="M39.3,68.2c1.1-1.5,2.4-2.7,4-3.6c1.5-0.8,3.1-1.3,4.8-1.3c0.5,0,1.1,0.1,1.5,0.5c0.4,0.3,0.6,0.8,0.6,1.3
			c0,0.9-0.3,1.7-0.9,2.4c-0.6,0.8-1.4,1.5-2.2,2c-0.7,0.4-1.6,0.7-2.4,0.7c-0.5,0-1-0.2-1.4-0.5c-0.3-0.3-0.5-0.8-0.5-1.2
			c-0.6,0.8-0.9,1.8-1,2.8c0,0.7,0.2,1.3,0.7,1.8c0.5,0.4,1.1,0.6,1.7,0.6c1.5-0.1,2.8-0.7,3.9-1.7c1.4-1.2,2.7-2.5,3.7-4l0.9,0.5
			c-1.5,2.3-3.4,4.5-5.4,6.4c-1.9,1.8-3.6,2.6-5.1,2.6c-0.7,0-1.4-0.1-2.1-0.4c-0.7-0.4-1.3-0.9-1.7-1.5c-0.5-0.8-0.7-1.8-0.7-2.7
			C37.7,71.2,38.3,69.6,39.3,68.2z M45.6,65.3c-0.9,0.7-1.7,1.6-2.4,2.6l1.3,0.2c0.7,0,1.4-0.2,2-0.6c0.6-0.4,1.2-0.9,1.6-1.5
			c0.3-0.3,0.5-0.7,0.6-1.2c0-0.2-0.1-0.3-0.2-0.4L48,64.2C47.1,64.3,46.3,64.7,45.6,65.3z"/>
		<path d="M50.3,70.3c1.7-2.9,2.9-5,3.7-6.2l0.5-0.8H58v0.2l-1.3,2c0.7-0.6,1.5-1.2,2.4-1.6c0.7-0.4,1.4-0.6,2.2-0.6
			c0.5,0,1.1,0.2,1.4,0.6c0.3,0.3,0.5,0.8,0.5,1.3c0,0.6-0.1,1.1-0.4,1.6c-0.3,0.9-0.7,1.7-1.2,2.5c-0.3,0.6-0.6,1.2-0.9,1.8
			c-0.2,0.4-0.4,0.8-0.4,1.2c0,0.2,0.1,0.4,0.2,0.5H61c1-0.1,1.9-0.6,2.6-1.4c1.1-1,2-2.2,2.9-3.4l0.9,0.5c-1.5,2.3-3.2,4.4-5.1,6.4
			c-1.8,1.8-3.4,2.6-4.7,2.6c-0.6,0-1.2-0.2-1.6-0.6c-0.4-0.5-0.6-1.1-0.6-1.7v-0.4c0.2-0.9,0.5-1.7,1-2.5c0.6-1,1.4-2.4,2.5-4
			c0.5-0.7,0.9-1.4,1.3-2.1c0.2-0.2,0.3-0.5,0.3-0.8c0-0.2-0.1-0.4-0.2-0.5c0-0.1-0.1-0.2-0.3-0.2c-0.6,0.1-1.1,0.3-1.5,0.7
			c-0.8,0.5-1.5,1.1-2.2,1.8c-0.8,0.8-1.4,1.6-2,2.5c-2.7,4.8-4,7.4-4,7.8h-4.2C47.2,75.6,48.6,73.1,50.3,70.3z"/>
		<path d="M66.3,68.2c1-1.5,2.4-2.8,4-3.6c1.4-0.8,3-1.3,4.7-1.3c0.5,0,1.1,0.1,1.5,0.5c0.4,0.3,0.6,0.8,0.6,1.3
			c0,0.9-0.3,1.7-0.9,2.4c-0.6,0.8-1.3,1.5-2.2,2c-0.7,0.4-1.5,0.7-2.3,0.7c-0.5,0-1.1-0.1-1.5-0.5c-0.3-0.3-0.4-0.8-0.4-1.2
			c-0.6,0.8-1,1.8-1.1,2.8c0,0.7,0.2,1.3,0.7,1.8c0.5,0.4,1.1,0.6,1.8,0.6c1.5-0.1,2.8-0.7,3.9-1.7c1.4-1.2,2.6-2.5,3.7-4l0.9,0.5
			c-1.5,2.3-3.4,4.5-5.4,6.4c-1.9,1.8-3.6,2.6-5.2,2.6c-0.7,0-1.4-0.1-2-0.4c-0.7-0.3-1.3-0.8-1.7-1.5c-0.5-0.8-0.8-1.7-0.7-2.7
			C64.7,71.2,65.3,69.5,66.3,68.2z M72.6,65.3c-0.9,0.8-1.8,1.6-2.5,2.6l1.3,0.2c0.7,0,1.5-0.2,2.1-0.6c0.6-0.4,1.1-0.9,1.5-1.5
			c0.3-0.3,0.5-0.7,0.6-1.2c0-0.2,0-0.3-0.2-0.4l-0.5-0.2C74,64.3,73.2,64.7,72.6,65.3z"/>
		<path d="M81,63.8c0.5-0.9,0.8-2,1-3l2.6-0.8l0.2,0.2L84.3,61l-1.4,2.3h7.5v0.2c-0.6,0.8-1.2,1.6-1.7,2.5l-2.2,3.9
			c-0.5,0.7-0.8,1.5-1,2.4c0,0.2,0.1,0.4,0.2,0.5h0.4c1-0.1,2-0.6,2.7-1.4c1.1-1,2-2.2,2.9-3.4l0.9,0.5c-1.5,2.3-3.2,4.5-5.2,6.4
			c-1.8,1.8-3.4,2.6-4.7,2.6c-0.6,0-1.2-0.2-1.6-0.7c-0.3-0.5-0.5-1.1-0.5-1.7c0.1-1.3,0.6-2.6,1.3-3.7l4.3-7.1h-3.9l-2.7,4.2
			l-0.2,0.3l-1-0.3l0.3-0.5C79.6,66.7,80.4,65.3,81,63.8z"/>
		<path d="M89.5,76.8c-0.4-0.5-0.6-1.2-0.6-1.9c0.1-1.7,0.6-3.4,1.5-4.9c1-1.8,2.2-3.5,3.8-4.8c1.4-1.2,3.2-1.9,5-1.9
			c0.5,0,1.1,0.1,1.5,0.4c0.3,0.3,0.6,0.6,0.7,1l0.9-1.4h3.5v0.2c-0.3,0.4-0.9,1.2-1.7,2.5s-1.6,2.7-2.3,3.9c-0.4,0.8-0.8,1.6-1,2.4
			c0,0.2,0.1,0.4,0.2,0.5h0.5c1-0.1,2-0.6,2.7-1.4c1.1-1.1,2-2.2,2.8-3.5l0.9,0.5c-1.4,2.4-3.2,4.5-5.2,6.4c-1.8,1.8-3.3,2.6-4.7,2.6
			c-0.6,0-1.1-0.2-1.5-0.7c-0.4-0.5-0.6-1.1-0.6-1.7c0-0.2,0-0.5,0.1-0.7c-1.8,2.1-3.4,3.1-4.8,3.1C90.6,77.5,89.9,77.2,89.5,76.8z
			 M97.3,66.3c-1,1-1.8,2-2.6,3.2c-0.6,0.8-1,1.7-1.2,2.7c0,0.5,0.3,0.8,0.9,0.8s1.7-0.7,2.8-2.1c1.3-1.6,2.4-3.3,3.5-5.1
			c0-0.2-0.2-0.4-0.4-0.6L99.6,65C98.7,65.2,97.9,65.6,97.3,66.3z"/>
		<path d="M119,54.9c-1.2,1.5-2.3,3.1-3.2,4.7l-4.9,8.3c-0.9,1.4-1.7,2.9-2.3,4.4c0,0.2,0,0.4,0.1,0.5h0.5c1.1-0.1,2-0.6,2.8-1.4
			c1.1-1.1,2-2.2,2.9-3.5l0.9,0.5c-1.5,2.3-3.3,4.5-5.3,6.4c-1.8,1.8-3.4,2.6-4.7,2.6c-0.6,0-1.2-0.2-1.6-0.7
			c-0.4-0.5-0.6-1.1-0.5-1.7c0.1-1.3,0.6-2.6,1.3-3.7c0.8-1.3,2.2-3.8,4.5-7.3l5.3-8.6l0.5-0.9h3.5L119,54.9z"/>
		</svg>
