<svg width="30px" height="30px" viewBox="0 0 40 40" version="1.1" xmlns="http://www.w3.org/2000/svg" xmlns:xlink="http://www.w3.org/1999/xlink">
  <g fill="currentColor">
      <path d="M6.6,27.3a7.7,7.7,0,0,0,2.7,3.5c1.3,1.1,3.4,1.7,6.3,1.7s4-.9,6.2-2.7a54.6,54.6,0,0,0,6.5-6.9,28.1,28.1,0,0,1-5.5,3.2,13.3,13.3,0,0,1-5.3,1.3,10.4,10.4,0,0,1-3.5-.7,7,7,0,0,1-3-2.4,8.1,8.1,0,0,1-1.1-4.6c0-2.8,1.2-5.7,3.7-8.7a32.7,32.7,0,0,1,9-7.5c3.6-2,6.7-3,9.4-3S37.8,2,37.8,5.1a7.9,7.9,0,0,1-2,4.5A17.4,17.4,0,0,1,30.9,14,11.5,11.5,0,0,1,25,15.8a5.8,5.8,0,0,1-1.9-.3,4.2,4.2,0,0,1-1.5-1.1l3.9-5.7A3.6,3.6,0,0,0,28.4,10a6.4,6.4,0,0,0,3-.9,8.8,8.8,0,0,0,2.5-2.2,3.8,3.8,0,0,0,1-2.3,1.7,1.7,0,0,0-.7-1.4,2.9,2.9,0,0,0-1.7-.5A12.6,12.6,0,0,0,25,5.4a22.8,22.8,0,0,0-6.1,6.3c-1.5,2.4-2.3,4.5-2.3,6.1a6.9,6.9,0,0,0,.9,3.6c.6,1.1,1.8,1.6,3.5,1.6a12.2,12.2,0,0,0,5.6-1.1,11.5,11.5,0,0,0,4-2.8,12.2,12.2,0,0,0,2.2-3.8h3.5a8.6,8.6,0,0,0-1,1.6l-1,1.5c-2.4,3.8-4.6,7.1-6.8,10a40.4,40.4,0,0,1-7.6,7.9,14.3,14.3,0,0,1-9,3.4,11.3,11.3,0,0,1-5.4-1.3,14.1,14.1,0,0,1-4.1-3.5l4.8-7.7Z" </path>
  </g>
</svg>
