<svg width="181px" height="150px" viewBox="0 0 181 98" version="1.1" xmlns="http://www.w3.org/2000/svg" xmlns:xlink="http://www.w3.org/1999/xlink">
  <g transform="translate(2.000000, 24.000000)" fill="#EFFEFF">
   <path class="a" d="M126,6.8C136.8,12,143.4,26,146.4,40.9s2.2,30.7-5.2,42-21.4,18-32.4,13.8S89.5,77.4,79.4,71.8,57,70.6,40.1,65.6,1.7,46.8.1,33,16.8,5.5,34.4,1.4s34.2,1.7,50,2.7S115.2,1.6,126,6.8Z"/>
  </g>
  <g transform="translate(2.000000, 24.000000)" fill="currentColor">
  <path class="b" d="M6.6,27.3a7.7,7.7,0,0,0,2.7,3.5c1.3,1.1,3.4,1.7,6.3,1.7s4-.9,6.2-2.7a54.6,54.6,0,0,0,6.5-6.9,28.1,28.1,0,0,1-5.5,3.2,13.3,13.3,0,0,1-5.3,1.3,10.4,10.4,0,0,1-3.5-.7,7,7,0,0,1-3-2.4,8.1,8.1,0,0,1-1.1-4.6c0-2.8,1.2-5.7,3.7-8.7a32.7,32.7,0,0,1,9-7.5c3.6-2,6.7-3,9.4-3S37.8,2,37.8,5.1a7.9,7.9,0,0,1-2,4.5A17.4,17.4,0,0,1,30.9,14,11.5,11.5,0,0,1,25,15.8a5.8,5.8,0,0,1-1.9-.3,4.2,4.2,0,0,1-1.5-1.1l3.9-5.7A3.6,3.6,0,0,0,28.4,10a6.4,6.4,0,0,0,3-.9,8.8,8.8,0,0,0,2.5-2.2,3.8,3.8,0,0,0,1-2.3,1.7,1.7,0,0,0-.7-1.4,2.9,2.9,0,0,0-1.7-.5A12.6,12.6,0,0,0,25,5.4a22.8,22.8,0,0,0-6.1,6.3c-1.5,2.4-2.3,4.5-2.3,6.1a6.9,6.9,0,0,0,.9,3.6c.6,1.1,1.8,1.6,3.5,1.6a12.2,12.2,0,0,0,5.6-1.1,11.5,11.5,0,0,0,4-2.8,12.2,12.2,0,0,0,2.2-3.8h3.5a8.6,8.6,0,0,0-1,1.6l-1,1.5c-2.4,3.8-4.6,7.1-6.8,10a40.4,40.4,0,0,1-7.6,7.9,14.3,14.3,0,0,1-9,3.4,11.3,11.3,0,0,1-5.4-1.3,14.1,14.1,0,0,1-4.1-3.5l4.8-7.7Z"/>
  <path class="b" d="M37.3,18.2a12.5,12.5,0,0,1,4-3.6,9.6,9.6,0,0,1,4.8-1.3,2,2,0,0,1,1.5.5,1.6,1.6,0,0,1,.6,1.3,3.6,3.6,0,0,1-.9,2.4,8.3,8.3,0,0,1-2.2,2,4.9,4.9,0,0,1-2.4.7,2,2,0,0,1-1.4-.5,2.1,2.1,0,0,1-.5-1.2,5.3,5.3,0,0,0-1,2.8,2.3,2.3,0,0,0,.7,1.8,2.4,2.4,0,0,0,1.7.6A6.1,6.1,0,0,0,46.1,22a20.2,20.2,0,0,0,3.7-4l.9.5a35,35,0,0,1-5.4,6.4c-1.9,1.8-3.6,2.6-5.1,2.6a5.2,5.2,0,0,1-2.1-.4,4.7,4.7,0,0,1-1.7-1.5,5.4,5.4,0,0,1-.7-2.7A8.3,8.3,0,0,1,37.3,18.2Zm6.3-2.9a12,12,0,0,0-2.4,2.6l1.3.2a3.6,3.6,0,0,0,2-.6A4.6,4.6,0,0,0,46.1,16a2.2,2.2,0,0,0,.6-1.2.5.5,0,0,0-.2-.4l-.5-.2A4.5,4.5,0,0,0,43.6,15.3Z"/>
  <path class="b" d="M48.3,20.3c1.7-2.9,2.9-5,3.7-6.2l.5-.8H56v.2l-1.3,2a11.1,11.1,0,0,1,2.4-1.6,4.6,4.6,0,0,1,2.2-.6,1.7,1.7,0,0,1,1.4.6,1.7,1.7,0,0,1,.5,1.3,3.4,3.4,0,0,1-.4,1.6,13.4,13.4,0,0,1-1.2,2.5,15,15,0,0,0-.9,1.8,2.4,2.4,0,0,0-.4,1.2.8.8,0,0,0,.2.5h.5a4.2,4.2,0,0,0,2.6-1.4A25.3,25.3,0,0,0,64.5,18l.9.5a44.7,44.7,0,0,1-5.1,6.4c-1.8,1.8-3.4,2.6-4.7,2.6a2.3,2.3,0,0,1-1.6-.6,2.5,2.5,0,0,1-.6-1.7v-.4a9.2,9.2,0,0,1,1-2.5c.6-1,1.4-2.4,2.5-4a19.3,19.3,0,0,0,1.3-2.1,1.6,1.6,0,0,0,.3-.8.8.8,0,0,0-.2-.5c0-.1-.1-.2-.3-.2a3.1,3.1,0,0,0-1.5.7,15.9,15.9,0,0,0-2.2,1.8,15.7,15.7,0,0,0-2,2.5c-2.7,4.8-4,7.4-4,7.8H44.1C45.2,25.6,46.6,23.1,48.3,20.3Z"/>
  <path class="b" d="M64.3,18.2a10.7,10.7,0,0,1,4-3.6A9.6,9.6,0,0,1,73,13.3a2,2,0,0,1,1.5.5,1.6,1.6,0,0,1,.6,1.3,3.6,3.6,0,0,1-.9,2.4,7,7,0,0,1-2.2,2,4.3,4.3,0,0,1-2.3.7,2.1,2.1,0,0,1-1.5-.5,1.9,1.9,0,0,1-.4-1.2,5.6,5.6,0,0,0-1.1,2.8,2.3,2.3,0,0,0,.7,1.8,2.6,2.6,0,0,0,1.8.6A6.6,6.6,0,0,0,73.1,22a23.7,23.7,0,0,0,3.7-4l.9.5a35,35,0,0,1-5.4,6.4c-1.9,1.8-3.6,2.6-5.2,2.6a4.5,4.5,0,0,1-2-.4,3.5,3.5,0,0,1-1.7-1.5,4.5,4.5,0,0,1-.7-2.7A7.6,7.6,0,0,1,64.3,18.2Zm6.3-2.9a15.5,15.5,0,0,0-2.5,2.6l1.3.2a4.2,4.2,0,0,0,2.1-.6A5.4,5.4,0,0,0,73,16a2.2,2.2,0,0,0,.6-1.2c0-.2,0-.3-.2-.4l-.5-.2A4.3,4.3,0,0,0,70.6,15.3Z"/>
  <path class="b" d="M79,13.8a9.3,9.3,0,0,0,1-3l2.6-.8.2.2-.5.8-1.4,2.3h7.5v.2A16.5,16.5,0,0,0,86.7,16l-2.2,3.9a7.7,7.7,0,0,0-1,2.4.8.8,0,0,0,.2.5h.4a4.4,4.4,0,0,0,2.7-1.4A25.7,25.7,0,0,0,89.7,18l.9.5a38.9,38.9,0,0,1-5.2,6.4c-1.8,1.8-3.4,2.6-4.7,2.6a1.9,1.9,0,0,1-1.6-.7,2.9,2.9,0,0,1-.5-1.7,8.2,8.2,0,0,1,1.3-3.7l4.3-7.1H80.3l-2.7,4.2-.2.3-1-.3.3-.5A29.1,29.1,0,0,0,79,13.8Z"/>
  <path class="b" d="M87.5,26.8a2.9,2.9,0,0,1-.6-1.9A10.2,10.2,0,0,1,88.4,20a16.5,16.5,0,0,1,3.8-4.8,7.8,7.8,0,0,1,5-1.9,2.4,2.4,0,0,1,1.5.4,2.3,2.3,0,0,1,.7,1l.9-1.4h3.5v.2c-.3.4-.9,1.2-1.7,2.5s-1.6,2.7-2.3,3.9a11.9,11.9,0,0,0-1,2.4.8.8,0,0,0,.2.5h.5a4.4,4.4,0,0,0,2.7-1.4,20.4,20.4,0,0,0,2.8-3.5l.9.5a31.4,31.4,0,0,1-5.2,6.4c-1.8,1.8-3.3,2.6-4.7,2.6a1.8,1.8,0,0,1-1.5-.7,2.4,2.4,0,0,1-.6-1.7,2.6,2.6,0,0,1,.1-.7c-1.8,2.1-3.4,3.1-4.8,3.1A2.1,2.1,0,0,1,87.5,26.8Zm7.8-10.5a20.2,20.2,0,0,0-2.6,3.2,5.8,5.8,0,0,0-1.2,2.7c0,.5.3.8.9.8s1.7-.7,2.8-2.1a49.4,49.4,0,0,0,3.5-5.1c0-.2-.2-.4-.4-.6l-.7-.2A4.2,4.2,0,0,0,95.3,16.3Z"/>
  <path class="b" d="M117,4.9a37.1,37.1,0,0,0-3.2,4.7l-4.9,8.3a25.9,25.9,0,0,0-2.3,4.4.7.7,0,0,0,.1.5h.5a4.9,4.9,0,0,0,2.8-1.4,25.7,25.7,0,0,0,2.9-3.5l.9.5a39.2,39.2,0,0,1-5.3,6.4c-1.8,1.8-3.4,2.6-4.7,2.6a1.9,1.9,0,0,1-1.6-.7,2.3,2.3,0,0,1-.5-1.7,8.2,8.2,0,0,1,1.3-3.7c.8-1.3,2.2-3.8,4.5-7.3l5.3-8.6.5-.9h3.5Z"/>
  <path class="b" d="M38.6,44.2a5.9,5.9,0,0,1-3.2,1.1h-.2A7,7,0,0,1,31,44a5,5,0,0,1-2-4.1c0-3.3,2.4-5.4,6.2-5.4a6,6,0,0,1,2.9.8c.3.1.3.5.1.8l-.6.9a.7.7,0,0,1-.9.1,4,4,0,0,0-1.5-.3,2.9,2.9,0,0,0-2.9,3.1A3,3,0,0,0,35.2,43c.4,0,.6-.2.6-.8v-.4a.6.6,0,0,0-.6-.6h-.4a.6.6,0,0,1-.6-.6V39.5a.6.6,0,0,1,.6-.6h3.6c.4,0,.7.2.7.6v3.7A1,1,0,0,1,38.6,44.2Z"/>
  <path class="b" d="M48.9,45.1H46.6a1.2,1.2,0,0,1-1-.5l-1.1-2.1a1,1,0,0,0-.7-.6c-.2,0-.4.3-.4.6v2a.6.6,0,0,1-.6.6h-2a.6.6,0,0,1-.6-.6V35.3c0-.4.2-.6.4-.6h4.1a4.8,4.8,0,0,1,3.2,1.1,3.7,3.7,0,0,1,1.2,2.6,3.3,3.3,0,0,1-1.2,2.5l-.2.2c-.1.1-.1.4.1.7l1.4,2.8C49.4,44.9,49.2,45.1,48.9,45.1ZM46,38.4A1.3,1.3,0,0,0,44.7,37h-.6a.7.7,0,0,0-.7.6v1.3a.7.7,0,0,0,.7.7h.8c.4,0,.7-.1.8-.3A1.2,1.2,0,0,0,46,38.4Z"/>
  <path class="b" d="M60.9,39.9a5.6,5.6,0,1,1-5.6-5.4A5.5,5.5,0,0,1,60.9,39.9Zm-3,0a2.9,2.9,0,0,0-2.6-3.1,2.9,2.9,0,0,0-2.6,3.1A2.9,2.9,0,0,0,55.3,43,2.9,2.9,0,0,0,57.9,39.9Z"/>
  <path class="b" d="M76.5,35.3l-3.1,9.2a.8.8,0,0,1-.8.6H70.2a.9.9,0,0,1-.9-.6l-.5-1.6c-.1-.3-.3-.3-.4,0l-.5,1.6a1,1,0,0,1-.9.6H64.6a.8.8,0,0,1-.8-.6l-3.1-9.2c-.1-.4.1-.6.5-.6h2.1a.8.8,0,0,1,.8.6l2,5.9c.1.4.3.4.4,0l2-5.9a.6.6,0,1,1,1.2,0l2,5.9c.1.3.2.3.4,0L74,35.3a.9.9,0,0,1,.9-.6h1.2C76.4,34.7,76.6,34.9,76.5,35.3Z"/>
  <path class="b" d="M85.8,35.3v1a.7.7,0,0,1-.7.7H83.7a.6.6,0,0,0-.6.6v6.9a.6.6,0,0,1-.5.6H80.3a.6.6,0,0,1-.5-.6V37.6a.6.6,0,0,0-.6-.6H77.8a.7.7,0,0,1-.7-.7v-1c0-.4.3-.6.7-.6h7.3C85.5,34.7,85.8,34.9,85.8,35.3Z"/>
  <path class="b" d="M95.8,35.3v9.2a.6.6,0,0,1-.5.6H93a.6.6,0,0,1-.5-.6V41.8a.7.7,0,0,0-.7-.6H90.5a.7.7,0,0,0-.7.6v2.7c0,.3-.2.6-.4.6H87a.6.6,0,0,1-.5-.6V35.3a.6.6,0,0,1,.5-.6h2.4c.2,0,.4.2.4.6v2.9a.7.7,0,0,0,.7.7h1.3a.7.7,0,0,0,.7-.7V35.3c0-.4.2-.6.5-.6h2.3C95.6,34.7,95.8,34.9,95.8,35.3Z"/>
  <path class="b" d="M109.5,46.1l-.2-.5a.6.6,0,0,0-.8-.3,5.8,5.8,0,0,1-1.9.2c-3.4,0-5.2-2.1-5.2-4.2a4.1,4.1,0,0,1,1.4-3.1l.9-.6c.3-.2.5-.5.3-.8l-1.2-1.6c-.2-.3-.1-.6.3-.6h4.8a1,1,0,0,1,.9.6l.5,1.2a.4.4,0,0,1-.4.6h-1.4c-.3,0-.5.2-.3.5a11.8,11.8,0,0,1,1.4,2.2,2.1,2.1,0,0,1,.4.6c.2.3.4.3.4.1s.3-.4.6-.4h1.1a.7.7,0,0,1,.6.7,5.6,5.6,0,0,1-.5,2.3,1.4,1.4,0,0,0,0,1.1,6,6,0,0,1,.5,1.4.5.5,0,0,1-.5.6h-1.7Zm-2.9-2.9h.7a.5.5,0,0,0,.4-.7L106.1,40c-.2-.3-.6-.5-.8-.4l-.4.3a2.2,2.2,0,0,0-.5,1.4A1.9,1.9,0,0,0,106.6,43.2Z"/>
  <path class="b" d="M39.8,59.6H37.6a1.1,1.1,0,0,1-.9-.6l-.4-.7a.9.9,0,0,0-.9-.6H32.3a1,1,0,0,0-.9.6L31,59a1,1,0,0,1-.9.6H28.8a.4.4,0,0,1-.3-.6l4.4-9.3a1,1,0,0,1,.9-.6h1.1a1,1,0,0,1,.9.6L40.2,59C40.4,59.3,40.2,59.6,39.8,59.6Zm-5.1-4.8-.5-1.2q-.3-.5-.6,0L33,54.8a.4.4,0,0,0,.4.6h.9C34.7,55.4,34.9,55.1,34.7,54.8Z"/>
  <path class="b" d="M49.8,49.8V59a.7.7,0,0,1-.7.6h-.4a1.6,1.6,0,0,1-1.1-.5l-3.9-5c-.2-.3-.4-.3-.4.1V59a.6.6,0,0,1-.6.6H41.6A.6.6,0,0,1,41,59V49.8a.7.7,0,0,1,.6-.7h1.5a1.6,1.6,0,0,1,1,.5L47,53.3c.3.3.4.2.4-.1V49.8a.7.7,0,0,1,.7-.7h1A.7.7,0,0,1,49.8,49.8Z"/>
  <path class="b" d="M61.8,59.6H59.5a1.3,1.3,0,0,1-.9-.6l-.3-.7a1.1,1.1,0,0,0-1-.6H54.2a1.1,1.1,0,0,0-.9.6L53,59a1.3,1.3,0,0,1-1,.6H50.7a.4.4,0,0,1-.3-.6l4.4-9.3a1,1,0,0,1,.9-.6h1.1a1.3,1.3,0,0,1,1,.6L62.1,59A.4.4,0,0,1,61.8,59.6Zm-5.2-4.8-.5-1.2q-.3-.5-.6,0L55,54.8a.4.4,0,0,0,.3.6h1A.4.4,0,0,0,56.6,54.8Z"/>
  <path class="b" d="M66.2,49.8v6.8c0,.4.2.7.6.7H70c.3,0,.5.2.4.6L69.9,59a1,1,0,0,1-.9.6H63.5a.6.6,0,0,1-.6-.6V49.8c0-.4.2-.7.5-.7h2.3A.7.7,0,0,1,66.2,49.8Z"/>
  <path class="b" d="M77.9,49.7l-2.7,5a4.2,4.2,0,0,0-.3,1.2V59a.6.6,0,0,1-.6.6h-2a.6.6,0,0,1-.6-.6V55.9a2.5,2.5,0,0,0-.4-1.2l-2.9-5c-.2-.3-.1-.6.3-.6h2.2a1.3,1.3,0,0,1,1,.6l1.4,2.5q.3.6.6,0l1.4-2.5a1.3,1.3,0,0,1,1-.6h1.3C78,49.1,78.1,49.4,77.9,49.7Z"/>
  <path class="b" d="M87.6,49.8v1c0,.4-.3.6-.7.6H85.5a.7.7,0,0,0-.6.7V59a.6.6,0,0,1-.5.6H82.1a.6.6,0,0,1-.5-.6V52.1a.7.7,0,0,0-.7-.7H79.6c-.4,0-.7-.2-.7-.6v-1a.7.7,0,0,1,.7-.7h7.3A.7.7,0,0,1,87.6,49.8Z"/>
  <path class="b" d="M92.2,49.8V59a.6.6,0,0,1-.5.6H89.4a.6.6,0,0,1-.5-.6V49.8c0-.4.2-.7.5-.7h2.3C92,49.1,92.2,49.4,92.2,49.8Z"/>
  <path class="b" d="M102.3,59a5.7,5.7,0,0,1-2.9.7h-.3a5.3,5.3,0,0,1-3.9-1.6,5.3,5.3,0,0,1,0-7.4,5.8,5.8,0,0,1,4-1.7h.2a5.7,5.7,0,0,1,2.9.7.7.7,0,0,1,.2.9l-.6.8a.8.8,0,0,1-1,.2,3.3,3.3,0,0,0-1.5-.3c-1.8,0-2.6,1.6-2.6,3.1a3.8,3.8,0,0,0,.6,2.2,2.8,2.8,0,0,0,2,.8,3.3,3.3,0,0,0,1.5-.3,1,1,0,0,1,1,.2l.6.8A.7.7,0,0,1,102.3,59Z"/>
  <path class="b" d="M112.8,56.4c0,1.9-1.8,3.3-4.7,3.3a7.4,7.4,0,0,1-4.1-1.2,1,1,0,0,1-.3-1l.4-1.1a.5.5,0,0,1,.8-.2,4.8,4.8,0,0,0,3.4,1.2c.7,0,1.1-.2,1.1-.6s-5.3-1.6-5.3-4.6,1.6-3.2,4.5-3.2a7.3,7.3,0,0,1,3.4.9c.3.1.4.5.3.9l-.4.9c-.1.4-.4.4-.8.3a4.7,4.7,0,0,0-2.6-.6c-.6,0-1.1.3-1.1.6S112.8,53.5,112.8,56.4Z"/>
  </g>
</svg>
