<svg height='20px' width='20px'  fill="currentColor" xmlns="http://www.w3.org/2000/svg" xmlns:xlink="http://www.w3.org/1999/xlink" version="1.1" x="0px" y="0px" viewBox="0 0 128 128" style="enable-background:new 0 0 128 128;" xml:space="preserve"><g><path d="M2,106h10c46.9,0,85-38.1,85-85v-0.9l12.7,12.7l7.1-7.1L92,1L67.3,25.7l7.1,7.1L87,20.1V21c0,41.4-33.6,75-75,75H2V106z"></path><path d="M45.4,25.4c0-11-9-20-20-20s-20,9-20,20s9,20,20,20S45.4,36.4,45.4,25.4z M15.4,25.4c0-5.5,4.5-10,10-10s10,4.5,10,10   s-4.5,10-10,10S15.4,30.9,15.4,25.4z"></path><polygon points="91.5,121.5 103,110.1 114.5,121.5 121.5,114.5 110.1,103 121.5,91.5 114.5,84.5 103,95.9 91.5,84.5 84.5,91.5    95.9,103 84.5,114.5  "></polygon></g></svg>
