<svg xmlns="http://www.w3.org/2000/svg" version="1.1" xmlns:xlink="http://www.w3.org/1999/xlink" xmlns:svgjs="http://svgjs.com/svgjs" viewBox="0 0 20 20" height="20" width="20">
    <title>website</title>
        <g transform="matrix(0.557822, 0, 0, 0.543905, 0.401973, 0.475861)" style="">
        <path stroke="currentColor" fill="none" stroke-width="1" stroke-linecap="round" stroke-linejoin="round"></path>
        <path d="M29.478 1.459c1.692 0 3.064 1.372 3.064 3.064v24.953c0 1.693-1.372 3.064-3.064 3.064h-24.955c-1.692 0-3.064-1.372-3.064-3.064v-24.953c0-1.693 1.372-3.064 3.064-3.064zM29.478 2.623h-24.955c-1.045 0-1.902 0.854-1.902 1.9v4.447h28.758v-4.447c0-1.045-0.855-1.9-1.9-1.9zM13.274 5.246c0.325 0 0.582 0.256 0.582 0.58s-0.258 0.582-0.582 0.582c-0.324 0-0.58-0.257-0.58-0.582s0.255-0.58 0.58-0.58zM9.552 5.246c0.325 0 0.58 0.255 0.58 0.58s-0.256 0.582-0.58 0.582c-0.324 0-0.582-0.258-0.582-0.582s0.257-0.58 0.582-0.58zM5.827 5.246c0.325 0 0.582 0.256 0.582 0.58s-0.258 0.582-0.582 0.582c-0.324 0-0.582-0.258-0.582-0.582s0.257-0.58 0.582-0.58zM31.378 10.133h-28.758v19.346c0 1.046 0.857 1.9 1.902 1.9h24.955c1.045 0 1.9-0.855 1.9-1.9v-18.996zM28.171 12.695c0.325 0 0.582 0.256 0.582 0.58s-0.258 0.582-0.582 0.582h-22.344c-0.324 0-0.582-0.258-0.582-0.582s0.257-0.58 0.582-0.58zM28.171 16.418c0.324 0 0.582 0.258 0.582 0.582s-0.258 0.582-0.582 0.582h-22.344c-0.324 0-0.582-0.258-0.582-0.582s0.258-0.582 0.582-0.582zM28.173 20.143c0.324 0 0.58 0.257 0.58 0.582v7.449c0 0.325-0.256 0.582-0.58 0.582h-11.174c-0.324 0-0.58-0.257-0.58-0.582v-7.449c0-0.325 0.256-0.582 0.58-0.582zM13.274 20.143c0.324 0 0.582 0.258 0.582 0.582s-0.258 0.582-0.582 0.582h-7.447c-0.324 0-0.582-0.258-0.582-0.582s0.258-0.582 0.582-0.582zM27.589 21.307h-10.008v6.285h10.008v-5.936zM13.274 23.867c0.324 0 0.582 0.258 0.582 0.582s-0.257 0.58-0.582 0.58h-7.447c-0.325 0-0.582-0.256-0.582-0.58s0.258-0.582 0.582-0.582zM13.274 27.592c0.324 0 0.582 0.258 0.582 0.582s-0.258 0.582-0.582 0.582h-7.447c-0.324 0-0.582-0.258-0.582-0.582s0.258-0.582 0.582-0.582z"></path>
      </g>
    </svg>
