<?xml version="1.0" encoding="utf-8"?>
<!-- Generator: Adobe Illustrator 25.0.1, SVG Export Plug-In . SVG Version: 6.00 Build 0)  -->
<svg version="1.1" id="Layer_1" xmlns="http://www.w3.org/2000/svg" xmlns:xlink="http://www.w3.org/1999/xlink" x="0px" y="0px"
	 viewBox="0 0 296.2 142.8" style="enable-background:new 0 0 296.2 142.8;" xml:space="preserve">
<style type="text/css">
	.st0{fill:#010101;}
	.st1{fill:#F06FAA;}
	.st2{font-family:'MarkerFelt-Wide';}
	.st3{font-size:66px;}
</style>
<path class="st0" d="M296.2,47.7c-0.2-2.1-0.1-4.7-0.1-7.2c0-1.2,0-2.4-0.1-3.4c0-0.3-0.1-0.5-0.1-0.8v-0.1l-0.1-0.4v-0.2
	c0-0.1-0.1-0.2-0.1-0.3s-0.1-0.2-0.1-0.3c0-0.2-0.1-0.3-0.1-0.5c-0.1-0.4-0.2-0.7-0.3-1c-0.2-0.4-0.3-0.7-0.5-1
	c0-0.8-0.2-1.6-0.3-2.3V30v-0.1c0-0.1,0-0.2,0.1-0.2c0-0.2,0.1-0.3,0.2-0.4c-1.1-2.5-2.1-5-3.2-7.4c-0.9-2.1-1.9-4.5-3-5.7
	c-1.3-1.5-2.2-4.6-3.8-6.6c-0.2-0.2-0.3-0.5-0.5-0.7c-0.3-0.4-0.5-0.8-0.8-1.3s-0.7-1.1-1.1-1.6c-0.2-0.3-0.4-0.6-0.5-0.8
	c-0.2-0.3-0.4-0.6-0.6-0.8c-0.9-0.9-2.2-1.6-3.5-1.9c-1.2-0.4-2.6,0.1-3.7,0.2c-0.6,0.1-1.4,0.2-2.2,0.4c-0.5,0.1-1.1,0.2-1.6,0.3
	c-1.1,0.1-2.3,0.1-3.1-0.3c-0.5,0.5-0.7,0.8-1,1.1c-0.4-0.1-0.7-0.2-1-0.3l-0.4-0.2c-2,0.3-3.4,0.3-4.5,0.2V3.8c-0.9,0-2-0.1-3.3,0
	c-3.1,0.1-5.4,0.5-9.6,1c-0.8,0.1-11,0.7-11.7,0.9c-1.6,0.4-3.3,0.8-5,1.2c-1.8,0.4-5,0.6-4.4,1.3c0.1,0.1-1.4,0.4-2.3,0.6
	c-2,0.3-4,0.6-6.1,0.9c-0.5,0.3-1,0.4-1.5,0.7c0,0,0-0.1-0.1-0.1l-3.8,0.5c-0.7-0.9-0.6-0.8-1.6-1c-1.9-0.4-5.3,0-7.9,0.8
	c-3.5,1.1-7.8,1.6-11.8,2.3c-1.7,0.3-3.3,0.6-4.7,0.9l-1.2,0.3c0-0.1,0.1-0.3,0.5-0.5c-3.4,0.5-3.1-0.5-6.1-0.2
	c-3.1,0.3-6.2,0.6-9.2,1c-2.1,0.3-5.3,0.9-6,1.3c-1.4,0.8-4.2,1.2-6.6,1.8c-0.8,0.2-1.6,0.4-2.5,0.6h-1.9c-0.2-0.1-0.4-0.3-0.7-0.5
	c-0.3,0.2-1,0.2-1.7,0.4c-0.7,0-1.4-0.2-2.1-0.1l3.5-0.4c-2.2,0.3-2.3-0.4-6,0.6c-1.3,0-2.5-0.1-3.8-0.1c-1.3,0.2-2.5,0.5-3.6,0.7
	c-4.4,1-8.9,1.7-13.7,2.1c-0.5,0-1.2,0.2-1.7,0.3l-8,1.8c-0.8-0.1-1.7-0.2-2.5-0.4c-2.6-0.4-4.1,0.8-6.7,0.9c0.1-0.7-1-1-5.2-0.2
	c-2.6,0.5-5.8,0.8-8.6,1.3c-1,0.2-1.7,0.5-2.7,0.8c-0.5-0.2-0.7-0.4-0.4-0.8c-2.2,0-3.8-0.2-5.7-0.1c-1.4,0.1-3.3,0.3-4.8,0.6
	c-3.2,0.6-6.2,1.3-9.5,1.2c-4.1,1-10.4,1.4-12.9,2.9c-0.2,0.1-0.4,0.2-0.7,0.4c-1.1-0.1-1.9-0.4-2.2-0.9c-2.7,0.2-5.4,0.4-8,0.6
	c-2.3,0.2-4.8,0.4-6.3,1c-1.9,0.8-5,0.6-7.4,1.4c-2,0.7-6,1.4-8.6,2.2c-1.5,0.5-4.4,1.2-6,0.4c-0.5,0.5-0.7,0.8-1,1.1
	c-0.4-0.1-0.7-0.2-1-0.3L15,34.8c-0.3,0-0.5,0.1-0.7,0.1H14c-0.2,0-0.3,0.1-0.5,0.1c-0.7,0.1-1.3,0.2-1.9,0.3
	c-1.2,0.2-2.2,0.3-3.2,0.4l2.8,4.1l-2.9-4.2c-1.4,0.4-3,1.6-3.9,3.5c-0.3,1.3-0.5,2.5-0.7,3.8c-0.1,0.6-0.2,1.2-0.3,1.9
	c-0.1,0.4-0.1,0.5-0.1,0.7v0.6c-0.1,1.5-0.2,3.1-0.4,5.2c-0.1,0.8-1.4,11-1.3,11.6c0.1,1.7,0.2,3.4,0.2,5.1c0.1,1.8-0.4,5,0.4,4.6
	c0.1,0,0.2,1.5,0.1,2.4c-0.1,2-0.2,4.1-0.3,6.2c0.2,0.5,0.2,1.1,0.4,1.6H2.2l-0.3,3.8C0.9,87.1,1,87,0.6,88
	c-0.7,1.8-1.1,5.2-0.7,7.9c0.2,1.8,0.2,3.8,0.2,5.9c0,1-0.1,2-0.1,3.1c0,0.5,0,1-0.1,1.5v1.8c0,0.8,0.1,1.3,0.2,1.9s0.3,1.1,0.4,1.7
	l0.3,0.9l0.2,0.4c0.1,0.2,0.1,0.2,0.1,0.3c0.2,0.3,0.4,0.6,0.5,0.9c0.2,0.4,0.4,0.7,0.6,1c-0.1,0.1-0.3,0-0.6-0.3
	c1.3,3.2,0.3,3.1,1.3,5.9c1.1,2.9,2.1,5.8,3.3,8.6c0.8,2,2.2,4.9,2.8,5.4c0.1,0.1,0.2,0.2,0.3,0.4l0.2,0.2c0.1,0.1,0.1,0.2,0.2,0.4
	c0.3,0.5,0.6,1.1,0.9,1.7c0.7,0.9,1.2,2.1,2.2,2.8c1,0.8,2.2,1.4,3.4,1.5c1.4,0,2.7-0.2,4.1-0.3c0.7,0,1.4,0.1,2.1,0.1
	c0.2,0.2,0.4,0.3,0.7,0.6c0.3-0.2,1-0.2,1.7-0.3c0.7,0,1.4,0.3,2.1,0.3l-3.5,0.2c2.2-0.2,2.3,0.5,6-0.3c1.2,0.1,2.5,0.2,3.8,0.3
	c1.3-0.2,2.6-0.3,3.7-0.5c4.4-0.8,9-1.2,13.8-1.4c0.6,0,1.2-0.1,1.7-0.2l8.1-1.4c0.8,0.2,1.7,0.3,2.5,0.5c2.6,0.5,4.1-0.6,6.8-0.6
	c-0.2,0.7,0.9,1,5.2,0.4c2.7-0.4,5.8-0.5,8.7-0.8c1-0.1,1.7-0.4,2.7-0.7c0.5,0.2,0.7,0.5,0.3,0.8c2.2,0.2,3.7,0.4,5.6,0.4
	c1.4,0,3.3-0.1,4.8-0.3c3.2-0.4,6.2-0.9,9.5-0.7c4.2-0.8,10.4-0.9,13-2.2c0.2-0.1,0.4-0.2,0.7-0.3c1.1,0.2,1.9,0.5,2.1,1
	c2.7-0.1,5.4-0.1,8-0.2c2.3-0.1,4.9-0.1,6.4-0.7c1.9-0.7,5-0.3,7.5-1c2.1-0.6,6-1,8.7-1.7c1.5-0.4,4.4-0.9,6.1-0.1l1-1
	c0.4,0.1,0.7,0.2,1,0.3l0.3,0.2c2-0.2,3.4-0.1,4.5,0.1l-0.3-4.9l0.3,4.9c0.9,0.1,2,0.2,3.3,0.2c3.1,0.1,5.4-0.2,9.6-0.4
	c0.8,0,11.1-0.1,11.7-0.3c1.7-0.3,3.3-0.6,5.1-0.9c1.8-0.3,5-0.3,4.5-1.1c-0.1-0.1,1.5-0.4,2.4-0.5c2-0.2,4.1-0.4,6.2-0.6
	c0.5-0.2,1-0.3,1.5-0.6c0,0,0,0.1,0.1,0.1l3.8-0.3c0.6,1,0.5,0.8,1.5,1.1c1.9,0.5,5.3,0.3,8-0.4c3.6-0.9,7.9-1.2,11.9-1.6
	c1.7-0.2,3.4-0.4,4.7-0.7l1.2-0.3c0,0.1-0.1,0.3-0.5,0.5c3.4-0.3,3.1,0.7,6,0.6c3.1-0.1,6.2-0.2,9.2-0.5c2.1-0.2,5.3-0.6,6-0.9
	c1.5-0.8,4.3-1,6.7-1.4c0.8-0.1,1.7-0.3,2.6-0.4c0.7,0,1.3,0.1,1.9,0.1c0.2,0.2,0.4,0.3,0.7,0.6c0.3-0.2,1-0.2,1.7-0.3
	c0.7,0,1.4,0.3,2.1,0.3l-3.5,0.2c2.2-0.2,2.3,0.5,6-0.3c0.2,0,1.1,0,1.8,0.1h2.2c0.8-0.1,1.7-0.3,2.5-0.4c2-0.6,3.6-2.5,4.2-4.2
	c0.2-1.9,0.4-3.9,0.6-5.9l0.1-0.7v-0.4l-0.1-0.9v-1.7c0-2.3,0.1-4.7,0.4-7.1v-1.8l-0.4-8.2c0.3-0.8,0.5-1.6,0.8-2.4
	c0.8-2.5-0.1-4.1,0.2-6.8c0.7,0.3,1.1-0.8,1-5.1c-0.1-2.7,0.2-5.8,0.2-8.7c0-1-0.2-1.8-0.4-2.8c0.3-0.5,0.5-0.6,0.8-0.2
	c0.4-2.1,0.8-3.7,1-5.6c0.2-1.4,0.3-3.3,0.2-4.9C295.8,54.1,295.6,51,296.2,47.7L296.2,47.7z"/>
<path class="st1" d="M12.9,35.5c-1.1,0.1-2.1,1.1-2.2,2.2l-7,73.3c-0.1,1.1,0.7,1.9,1.8,1.9l267-15.6c1.1-0.1,2-1,2.1-2.1l3-89.8
	c0-1.1-0.8-1.9-1.9-1.8L12.9,35.5z"/>
<path class="st0" d="M94.9,102.8c-1.2,0.2-2.3,0.5-3.6,0.7c-1.3,0.2-3.5,0.2-3.2,0.8c0,0.1-1,0.3-1.7,0.3c-1.4,0.1-2.9,0.2-4.4,0.4
	c-0.3,0.2-0.7,0.3-1.1,0.5v-0.1l-2.7,0.2c-0.4,0-0.4-0.7-1.1-0.9c-1.3-0.4-3.7-0.3-5.6,0.2c-2.5,0.7-5.6,0.8-8.4,1.1
	c-1.2,0.1-2.4,0.3-3.3,0.5c-0.3,0.1-0.6,0.1-0.8,0.2c0-0.1,0.1-0.2,0.4-0.4c-2.4,0.2-2.2-0.6-4.3-0.5c-2.2,0.1-4.4,0.1-6.5,0.3
	c-1.5,0.1-3.8,0.4-4.2,0.7c-1,0.6-3,0.7-4.7,1l-1.8,0.3c-0.5,0-0.9-0.1-1.4-0.1l-0.5-0.5c-0.2,0.1-0.7,0.1-1.2,0.2
	c-0.5,0-0.9,0.5-1.5-0.2l2.5-0.1c-1.6-0.7-1.6-0.5-4.2,0.1l-2.7-0.3c-0.9,0.1-1.8,0.2-2.6,0.4c-3.1,0.5-6.3,0.8-9.7,0.9
	c-0.4,0-0.9,0.1-1.2,0.1l-5.7,1c-0.4-0.1-0.4-0.1-0.5-0.2S9,109.2,9,109.1c-0.2-0.3-0.3-0.2-0.5-0.1s-0.7,0.3-0.7-0.1
	c0.3-0.2,0.5-0.5,0.6-0.6c0.1-0.2,0.2-0.3,0.1-0.5v-0.2v-0.2c0-0.5,0.1-1,0.1-1.5c0.1-1,0.2-2.1,0.2-3.1c0-0.7-0.1-1.2-0.2-2
	c0.2-0.3,0.4-0.4,0.7-0.1c0.4-1.5,0.8-2.6,1-3.9c0.2-1,0.3-2.3,0.3-3.4c0.1-2.3,0-4.4,0.6-6.7c-0.1-3,0.6-7.3-0.2-9.3
	c-0.1-0.2-0.1-0.3-0.2-0.5c0.3-0.7,0.6-1.2,1-1.4c0.3-1.9,0.6-3.8,0.8-5.6c0.2-1.6,0.5-3.4,0.2-4.5c-0.3-1.4,0.4-3.5,0.1-5.3
	c-0.2-1.5,0.7-4.2,0.5-6.2c-0.1-1.1-0.2-3.2,0.7-4.2c-0.3-0.4-0.5-0.6-0.7-0.9c0.2-0.3,0.3-0.4,0.4-0.6L14,48c0.2-2,0.4-3.1,0.6-4
	c0.1-0.5,0.2-1,0.3-1.6c0-0.3,0.1-0.6,0.2-1c0-0.2,0.1-0.4,0.1-0.6v-0.3h0.1c-0.1-0.1,0-0.1,0.1,0s0.2,0.2,0.2,0.1L10.9,32
	c-0.5,0.1-1.1,0.3-1.6,0.7c-0.6,0.3-1.1,0.8-1.6,1.4c-0.4,0.5-0.7,1-0.9,1.6c-0.2,0.6-0.3,1.2-0.5,1.8C6.2,39.1,6,40.7,5.8,43
	c-0.1,0.6-1.2,7.7-1.2,8.2c0,1.2,0.1,2.4,0.1,3.6c0,1.3-0.4,3.5,0.3,3.3c0-0.1,0.1,1,0,1.6c-0.1,1.4-0.2,2.9-0.3,4.4
	c0.1,0.4,0.1,0.8,0.3,1.1H4.9l-0.3,2.7c-0.8,0.3-0.7,0.3-1,0.9C3,70,2.7,72.4,2.9,74.4c0.3,2.6,0,5.6-0.2,8.4
	c-0.1,1.2-0.1,2.4,0,3.4c0,0.3,0.1,0.6,0.1,0.9c-0.1,0-0.2-0.1-0.3-0.4c-0.2,2.4-0.9,2.1-1.2,4.1C1,93,0.7,95.1,0.6,97.3
	c-0.1,1.5-0.2,3.8,0,4.3c0.4,1.1,0.3,3.1,0.3,4.8c0,0.2,0,0.8,0.1,1.2c0,0.5,0.1,0.9,0.1,1.4c-0.1,0.7-0.1,1.4-0.2,2.1
	c-0.1,0.2-0.3,0.5-0.5,0.9c0.1,0.2,0.1,0.4,0.1,0.8v0.5c0.1,0.1,0.1,0.3,0.2,0.4c0.2,0.7,0.5,1.5,1.1,2c0,0-0.2-0.1-0.4-0.4
	s-0.6-0.6-0.8-1l-0.3-0.6c0-0.1-0.1-0.2-0.1-0.3v-0.3v-0.6v0.9c0,0.2,0.1,0.4,0.2,0.6c0.1,0.4,0.3,0.7,0.5,1.1s0.5,0.7,1.1,1.1
	c0.2,0.2,0.6,0.4,0.9,0.5c0.1,0,0.2,0.1,0.3,0.1h1.2c1.4,0.2,2.9,0.4,4.4,0.6H10c0.3,0,0.5-0.1,0.7-0.1c0.4-0.1,0.8-0.1,1.2-0.2
	c3.1-0.5,6.3-0.8,9.7-0.9c0.4,0,0.9-0.1,1.2-0.1l5.7-1c0.6,0.1,1.2,0.3,1.7,0.4c1.8,0.5,2.9-0.4,4.8-0.4c-0.1,0.6,0.7,0.8,3.7,0.4
	c1.9-0.3,4.1-0.3,6.1-0.5c0.7-0.1,1.2-0.3,1.9-0.5c0.4,0.2,0.5,0.4,0.2,0.6c1.5,0.2,2.6,0.4,4,0.4c1,0,2.4,0,3.4-0.2
	c2.2-0.3,4.4-0.7,6.7-0.4c2.9-0.6,7.3-0.5,9.2-1.6c0.2-0.1,0.3-0.2,0.5-0.2c0.8,0.2,1.3,0.4,1.5,0.8h5.7c1.6,0,3.4,0,4.5-0.4
	c1.3-0.5,3.6-0.2,5.3-0.7c1.5-0.5,4.2-0.7,6.1-1.3c1.1-0.3,3.1-0.7,4.3,0c0.4-0.4,0.5-0.6,0.7-0.8c0.3,0.1,0.5,0.2,0.7,0.3l0.2,0.2
	c1.4-0.1,2.4,0,3.2,0.1l-0.5-9.1C99.9,102.3,95.3,102.7,94.9,102.8z"/>
<path class="st0" d="M269.7,92.6c0,0.1,0,0.2-0.1,0.2h-0.1L269,93c-0.3,0.1-0.6,0.1-0.9,0.2c-1.3,0.2-3.5,0.2-3.2,0.8
	c0,0.1-1,0.3-1.7,0.3c-1.4,0.1-2.9,0.2-4.4,0.4c-0.3,0.2-0.7,0.3-1.1,0.5v-0.1l-2.7,0.2c-0.4,0-0.4-0.7-1.1-0.9
	c-1.3-0.4-3.7-0.3-5.6,0.2c-2.5,0.7-5.6,0.8-8.4,1.1c-1.2,0.1-2.4,0.3-3.3,0.5c-0.3,0.1-0.6,0.1-0.8,0.2c0-0.1,0.1-0.2,0.4-0.4
	c-2.4,0.2-2.2-0.6-4.3-0.5c-2.2,0.1-4.4,0.1-6.5,0.3c-1.5,0.1-3.7,0.4-4.2,0.7c-1,0.6-3,0.7-4.7,1l-1.8,0.3c-0.5,0-0.9-0.1-1.4-0.1
	l-0.5-0.5c-0.2,0.1-0.7,0.1-1.2,0.2c-0.5,0-0.9,0.5-1.5-0.2l2.5-0.1c-1.6-0.7-1.6-0.5-4.2,0.1l-2.7-0.3c-0.9,0.1-1.8,0.2-2.6,0.4
	c-3.1,0.5-6.3,0.8-9.7,0.9c-0.4,0-0.9,0.1-1.2,0.1l-5.7,1c-0.6-0.1-1.2-0.3-1.7-0.4c-1.8-0.5-2.9,0.4-4.8,0.4
	c0.1-0.6-0.7-0.8-3.7-0.4c-1.9,0.3-4.1,0.3-6.1,0.5c-0.7,0.1-1.2,0.3-1.9,0.5c-0.4-0.2-0.5-0.4-0.2-0.6c-1.5-0.2-2.6-0.4-4-0.4
	c-1,0-2.4,0-3.4,0.2c-2.2,0.3-4.4,0.7-6.7,0.4c-2.9,0.6-7.3,0.5-9.2,1.6c-0.2,0.1-0.3,0.2-0.5,0.2c-0.8-0.2-1.3-0.4-1.5-0.8h-5.7
	c-1.6,0-3.4,0-4.5,0.4c-1.3,0.5-3.6,0.2-5.3,0.7c-1.5,0.5-4.3-0.1-6.2,0.5c-1.1,0.3-3.1,0.7-4.3,0c-0.4,0.4-0.5,0.6-0.7,0.8
	c-0.3-0.1-0.5-0.2-0.7-0.3l-0.2-0.2c-4.1,0.3-4.2-0.2-7.9,0h-1.4c-0.9,0.3-2.7-0.2-3.8-0.1H102l0.5,9.1c0.6,0.1,1.4,0.2,2.3,0.2
	c2.2,0.1,3.8-0.1,6.8-0.2h8.3c1.2-0.2,2.3-0.5,3.6-0.7c1.3-0.2,3.5-0.2,3.2-0.8c0-0.1,1-0.3,1.7-0.3c1.4-0.1,2.9-0.2,4.4-0.4
	c0.3-0.2,0.7-0.3,1.1-0.5v0.1l2.7-0.2c0.4,0.8,0.4,0.6,1.1,0.9c1.3,0.4,3.7,0.3,5.6-0.2c2.5-0.7,5.6-0.8,8.4-1.1
	c1.2-0.1,2.4-0.2,3.3-0.5c0.3-0.1,0.6-0.1,0.8-0.2c0,0.1-0.1,0.2-0.4,0.4c2.4-0.2,2.2,0.6,4.3,0.5c2.2-0.1,4.4-0.1,6.5-0.3
	c1.5-0.1,3.7-0.4,4.2-0.7c1-0.6,3-0.7,4.7-1l1.8-0.3c0.5,0,0.9,0.1,1.4,0.1l0.5,0.5c0.2-0.1,0.7-0.1,1.2-0.2c0.5,0,1,0.3,1.5,0.2
	l-2.5,0.1c1.6-0.1,1.6,0.4,4.2-0.1l2.7,0.3c0.9-0.1,1.8-0.2,2.6-0.4c3.1-0.5,6.3-0.8,9.7-0.9c0.4,0,0.9-0.1,1.2-0.1l5.7-1
	c0.6,0.1,1.2,0.3,1.7,0.4c1.8,0.5,2.9-0.4,4.8-0.4c-0.1,0.6,0.7,0.8,3.7,0.4c1.9-0.3,4.1-0.3,6.1-0.5c0.7-0.1,1.2-0.3,1.9-0.5
	c0.4,0.2,0.5,0.4,0.2,0.6c1.5,0.2,2.6,0.4,4,0.4c1,0,2.4,0,3.4-0.2c2.2-0.3,4.4-0.7,6.7-0.4c2.9-0.6,7.3-0.5,9.2-1.6
	c0.2-0.1,0.3-0.2,0.5-0.2c0.8,0.2,1.3,0.4,1.5,0.8h5.7c1.6,0,3.4,0,4.5-0.4c1.3-0.5,3.6-0.2,5.3-0.7c0.7-0.2,1.8-0.4,2.9-0.6
	c0.6-0.1,1.1-0.2,1.7-0.3c0.3-0.1,0.5-0.1,0.8-0.2s0.7-0.2,1-0.2c0.9-0.2,2.1-0.5,3.3-0.7c1.2-0.1,2.2-0.9,3.1-1.3
	c0.1-0.7,0.1-1,0.1-1.5c0.2-0.1,0.3-0.3,0.4-0.4s0.2-0.2,0.3-0.4l0.2-0.3c0.1-1.2,0.2-2.1,0.4-2.9c0.1-0.4,0.2-0.9,0.2-1.1
	s0.3-0.4,0.4-0.6l-8.9-0.3v0.7H270h-0.1v0.1C269.8,92.6,269.7,92.6,269.7,92.6L269.7,92.6z M196.6,18.2c1.2-0.3,2.3-0.6,3.5-0.9
	c1.3-0.3,3.5-0.4,3.1-1c0-0.1,1-0.3,1.6-0.4c1.4-0.2,2.8-0.4,4.3-0.6c0.3-0.2,0.7-0.3,1-0.5v0.1l2.7-0.3c0.4,0,0.4,0.6,1.1,0.8
	c1.3,0.3,3.7,0.1,5.6-0.5c2.5-0.8,5.5-1.2,8.3-1.6c1.2-0.2,2.3-0.4,3.3-0.7c0.3-0.1,0.5-0.2,0.8-0.3c0,0.1-0.1,0.2-0.3,0.4
	c2.4-0.3,2.2,0.5,4.3,0.3c2.2-0.2,4.4-0.4,6.5-0.7c1.5-0.2,3.7-0.6,4.2-0.9c1-0.6,2.9-0.9,4.7-1.3c0.6-0.1,1.2-0.3,1.8-0.4h1.4
	c0.1,0.1,0.3,0.3,0.5,0.4c0.2-0.2,0.7-0.2,1.2-0.3c0.5,0,0.9-0.6,1.5,0.1l-2.4,0.3c1.6,0.6,1.6,0.4,4.2-0.4c0.9,0,1.8,0.1,2.7,0.1
	c0.9-0.2,1.8-0.3,2.5-0.5c1.5-0.4,3.1-0.7,4.7-0.9l2.4-0.3h0.8c0.1,0,0.2,0,0.3-0.1c0.3-0.2,0.7-0.3,0.9-0.1
	c0.2,0.2,0.2,0.4,0.1,0.8l0.2-0.1c-0.2,0.3-0.4,0.5-0.6,0.6l-0.1,0.1c0,0.1-0.1,0.2-0.1,0.3c0,0.2-0.1,0.4-0.1,0.6
	c0,0.4,0,0.8,0.1,1.1c0.1,0.7,0.2,1.5,0.1,2.4c-0.6-0.2-0.9,0.6-0.8,3.6c0.1,1.9-0.1,4.1-0.1,6.1c0,0.7,0.2,1.2,0.3,1.9
	c-0.2,0.3-0.4,0.5-0.7,0.2c-0.3,1.5-0.6,2.6-0.8,3.9c-0.1,1-0.2,2.4-0.1,3.4c0.1,2.3,0.3,4.4-0.2,6.7c0.3,3-0.1,7.4,0.7,9.3
	c0.1,0.2,0.1,0.3,0.2,0.5c-0.3,0.8-0.6,1.3-0.9,1.4c-0.2,1.9-0.3,3.8-0.5,5.6c-0.1,1.6-0.3,3.4,0,4.5c0.4,1.4-0.1,3.6,0.2,5.3
	c0.3,1.5-0.5,4.3-0.1,6.2c0.2,1.1,0.4,3.2-0.4,4.2c0.4,0.4,0.5,0.6,0.7,0.8c-0.1,0.3-0.2,0.5-0.3,0.7l-0.2,0.2
	c-0.1,4.1-0.5,4.2-0.7,7.9c0,0.5-0.2,1.2-0.1,1.4c0.2,0.9-0.5,2.7-0.4,3.7v0.1l9.2,0.3c0.1-0.6,0.3-1.4,0.4-2.3
	c0.3-2.2,0.3-3.8,0.4-6.7c0-0.6,0.8-7.8,0.7-8.2c-0.1-1.2-0.3-2.4-0.4-3.6c-0.1-1.3,0.1-3.5-0.5-3.2c-0.1,0-0.2-1.1-0.2-1.7v-4.4
	c-0.2-0.3-0.2-0.8-0.4-1.1h0.1l0.1-2.7c0.8-0.4,0.7-0.3,1-1c0.5-1.3,0.7-3.7,0.3-5.6c-0.4-2.6-0.3-5.6-0.4-8.4c0-1.2,0-2.4-0.2-3.4
	c0-0.3-0.1-0.6-0.1-0.8c0.1,0,0.2,0.1,0.4,0.4c0-2.4,0.8-2.1,0.9-4.2c0.1-2.2,0.3-4.4,0.3-6.5c0-1.5,0-3.8-0.3-4.3
	c-0.5-1.1-0.5-3.1-0.6-4.8c0-0.6-0.1-1.2-0.1-1.8c0.1-0.5,0.2-0.9,0.3-1.4c0.1-0.1,0.3-0.2,0.5-0.4c-0.1-0.2-0.1-0.7-0.1-1.2
	c0.1-0.5,0.4-1,0.4-1.5l-0.1,2.5c0.1-1.6,0.6-1.5,0.2-4.2c0.1-0.4,0.2-0.9,0.3-1.3l0.1-0.3l0.1-0.6l0.2-1.3v-2
	c-0.2-0.9-0.4-1.6-0.6-2.3c-0.1-0.3-0.1-0.6-0.3-0.9c-0.1-0.2-0.3-0.5-0.5-0.7c-0.4-0.5-0.8-0.9-1.3-1.3c-0.5-0.3-1.1-0.6-1.6-0.7
	c-0.7,0-1.3,0.1-2,0.1C274.1,0,272.7,0,271.3,0h-0.8l-0.6,0.1c-0.4,0-0.8,0.1-1.3,0.1c-0.4,0-0.9,0.1-1.2,0.2l-5.6,1.3L260,1.4
	c-1.8-0.4-2.9,0.6-4.8,0.7c0.1-0.6-0.7-0.8-3.7-0.2c-1.9,0.4-4.1,0.5-6.1,0.9c-0.7,0.1-1.2,0.4-1.9,0.6c-0.4-0.1-0.5-0.3-0.3-0.6
	c-1.5-0.1-2.7-0.2-4-0.2c-1,0-2.3,0.2-3.4,0.4c-2.2,0.4-4.3,0.9-6.7,0.9c-2.9,0.8-7.3,1-9.1,2.2c-0.1,0.1-0.3,0.2-0.5,0.3
	c-0.8-0.1-1.4-0.4-1.5-0.7c-1.9,0.1-3.8,0.3-5.6,0.4c-1.6,0.1-3.4,0.2-4.4,0.7c-1.3,0.6-3.5,0.4-5.2,1c-1.4,0.5-4.2,1-6,1.6
	c-1.1,0.4-3.1,0.9-4.3,0.2c-0.3,0.4-0.5,0.6-0.7,0.8c-0.3-0.1-0.5-0.2-0.7-0.2l-0.3-0.1c-1.4,0.2-2.4,0.2-3.2,0.1l1.1,9
	C191.6,19,196.2,18.3,196.6,18.2L196.6,18.2z"/>
<path class="st0" d="M20.8,39.5c1.2-0.3,2.3-0.6,3.5-0.9c1.3-0.3,3.5-0.4,3.1-1c0-0.1,1-0.3,1.6-0.4c1.4-0.2,2.8-0.4,4.3-0.6
	c0.3-0.2,0.7-0.3,1-0.5v0.1l2.7-0.3c0.4,0,0.4,0.6,1.1,0.8c1.3,0.3,3.7,0.1,5.6-0.5c2.5-0.8,5.5-1.2,8.3-1.6
	c1.2-0.2,2.3-0.4,3.3-0.7c0.3-0.1,0.5-0.2,0.8-0.3c0,0.1-0.1,0.2-0.3,0.4c2.4-0.3,2.2,0.5,4.3,0.3c2.2-0.2,4.4-0.4,6.5-0.7
	c1.5-0.2,3.7-0.6,4.2-0.9c1-0.7,2.9-0.9,4.7-1.3c0.6-0.1,1.2-0.3,1.8-0.4h1.4c0.1,0.1,0.3,0.3,0.5,0.4c0.2-0.2,0.7-0.2,1.2-0.3
	c0.5,0,0.9-0.6,1.5,0.1l-2.4,0.3c1.6,0.6,1.6,0.4,4.2-0.4c0.9,0,1.8,0.1,2.7,0.1c0.9-0.2,1.8-0.3,2.5-0.5c3.1-0.7,6.3-1.2,9.7-1.5
	c0.4,0,0.9-0.1,1.2-0.2l5.6-1.3l1.8,0.3c1.8,0.4,2.9-0.6,4.8-0.7c-0.1,0.6,0.7,0.8,3.7,0.2c1.9-0.4,4.1-0.5,6.1-0.9
	c0.7-0.1,1.2-0.4,1.9-0.6c0.4,0.1,0.5,0.3,0.3,0.6c1.5,0.1,2.7,0.2,4,0.2c1,0,2.3-0.2,3.4-0.4c2.2-0.4,4.3-0.9,6.7-0.9
	c2.9-0.8,7.3-1,9.1-2.2c0.1-0.1,0.3-0.2,0.5-0.3c0.8,0.1,1.4,0.4,1.5,0.7c1.9-0.1,3.8-0.3,5.6-0.4c1.6-0.1,3.4-0.3,4.4-0.7
	c1.3-0.6,3.5-0.4,5.2-1.1c1.4-0.5,4.3-0.2,6.1-0.8c1.1-0.4,3.1-0.9,4.3-0.2c0.3-0.4,0.5-0.6,0.7-0.8c0.3,0.1,0.5,0.2,0.7,0.2
	l0.3,0.1c4-0.6,4.2-0.1,7.9-0.5c0.5-0.1,1.2,0,1.4-0.1c0.9-0.3,2.7,0,3.7-0.2h0.1l-1.1-9.1c-0.7-0.1-1.4-0.1-2.3-0.1
	c-2.2,0-3.8,0.3-6.7,0.6c-0.6,0.1-7.8,0.4-8.2,0.6c-1.2,0.3-2.3,0.6-3.5,0.9c-1.3,0.3-3.5,0.4-3.1,1c0,0.1-1,0.3-1.6,0.4
	c-1.4,0.2-2.8,0.4-4.3,0.6c-0.3,0.2-0.7,0.3-1,0.5v-0.1l-2.7,0.3c-0.5-0.7-0.4-0.6-1.1-0.8c-1.3-0.3-3.7-0.1-5.6,0.5
	c-2.5,0.8-5.5,1.2-8.3,1.6c-1.2,0.2-2.3,0.4-3.3,0.7c-0.3,0.1-0.5,0.2-0.8,0.3c0-0.1,0.1-0.2,0.3-0.4c-2.4,0.3-2.2-0.5-4.3-0.3
	c-2.2,0.2-4.4,0.4-6.5,0.7c-1.5,0.2-3.7,0.6-4.2,0.9c-1,0.7-2.9,0.9-4.7,1.3c-0.6,0.1-1.2,0.3-1.8,0.4h-1.4
	c-0.1-0.1-0.3-0.3-0.5-0.4c-0.2,0.2-0.7,0.2-1.2,0.3c-0.5,0-1-0.2-1.5-0.1l2.4-0.3c-1.6,0.2-1.6-0.3-4.2,0.4c-0.9,0-1.8-0.1-2.7-0.1
	c-0.9,0.2-1.8,0.3-2.5,0.5c-3.1,0.7-6.3,1.2-9.7,1.5c-0.4,0-0.9,0.1-1.2,0.2L86.7,23l-1.8-0.3c-1.8-0.4-2.9,0.6-4.8,0.7
	c0.1-0.6-0.7-0.8-3.7-0.2c-1.9,0.4-4.1,0.5-6.1,0.9c-0.7,0.1-1.2,0.4-1.9,0.6c-0.4-0.1-0.5-0.3-0.3-0.6c-1.5-0.1-2.7-0.2-4-0.2
	c-1,0-2.3,0.2-3.4,0.4c-2.2,0.4-4.3,0.9-6.7,0.9c-2.9,0.8-7.3,1-9.1,2.2c-0.1,0.1-0.3,0.2-0.5,0.3c-0.8-0.1-1.4-0.4-1.5-0.7
	c-1.9,0.1-3.8,0.3-5.6,0.4c-1.6,0.1-3.4,0.2-4.4,0.7c-1.3,0.6-3.5,0.4-5.2,1c-1.4,0.5-4.2,1-6,1.6c-1.1,0.4-3.1,0.9-4.3,0.2
	c-0.3,0.4-0.5,0.6-0.7,0.8c-0.3-0.1-0.5-0.2-0.7-0.2l-0.3-0.1c-0.4,0.1-0.7,0.1-1,0.1c-0.5,0.1-0.9,0.1-1.4,0.2
	c-0.9,0.1-1.6,0.1-2.3,0.2l4.8,8.4v-0.1c0.7-0.1,1.5-0.2,2.2-0.3C19.4,39.8,20.6,39.6,20.8,39.5L20.8,39.5z"/>
<text transform="matrix(0.9962 -8.715494e-02 8.715494e-02 0.9962 72.6739 91.727)" class="st2 st3">Note</text>
</svg>
